SplineFontDB: 3.0
FontName: andemx
FullName: andemx
FamilyName: andemx
Weight: Regular
Copyright: Copyright (c) 2018, Anthony
UComments: "2018-6-6: Created with FontForge (http://fontforge.org)"
Version: 001.000
ItalicAngle: 0
UnderlinePosition: -37.5983
UnderlineWidth: 0
Ascent: 828
Descent: 196
InvalidEm: 0
LayerCount: 2
Layer: 0 0 "Arri+AOgA-re" 1
Layer: 1 0 "Avant" 0
XUID: [1021 101 -694660715 26831]
FSType: 0
OS2Version: 0
OS2_WeightWidthSlopeOnly: 0
OS2_UseTypoMetrics: 1
CreationTime: 1528289563
ModificationTime: 1528371929
PfmFamily: 17
TTFWeight: 400
TTFWidth: 5
LineGap: 45
VLineGap: 0
OS2TypoAscent: 0
OS2TypoAOffset: 1
OS2TypoDescent: 0
OS2TypoDOffset: 1
OS2TypoLinegap: 45
OS2WinAscent: 0
OS2WinAOffset: 1
OS2WinDescent: 0
OS2WinDOffset: 1
HheadAscent: 0
HheadAOffset: 1
HheadDescent: 0
HheadDOffset: 1
OS2Vendor: 'PfEd'
MarkAttachClasses: 1
DEI: 91125
LangName: 1033
Encoding: ISO8859-1
UnicodeInterp: none
NameList: AGL For New Fonts
DisplaySize: -48
AntiAlias: 1
FitToEm: 0
WidthSeparation: 32
WinInfo: 0 19 14
BeginPrivate: 1
BlueValues 22 [3 12 438 448 574 574]
EndPrivate
TeXData: 1 0 0 346030 173015 115343 626560 1048576 115343 783286 444596 497025 792723 393216 433062 380633 303038 157286 324010 404750 52429 2506097 1059062 262144
BeginChars: 256 110

StartChar: a
Encoding: 97 97 0
Width: 641
VWidth: 0
Flags: HMW
HStem: 12 116<236 408> 504 116<236 406>
VStem: 16 116<232 401> 509 116<26 76 231 400>
LayerCount: 2
Fore
SplineSet
509 76 m 1
 457 35 392 12 321 12 c 0
 153 12 16 148 16 316 c 0
 16 484 153 620 321 620 c 0
 489 620 625 484 625 316 c 2
 625 71 l 2
 625 39 600 12 568 12 c 0
 536 12 509 39 509 71 c 2
 509 76 l 1
321 128 m 0
 425 128 509 212 509 316 c 0
 509 420 425 504 321 504 c 0
 217 504 132 420 132 316 c 0
 132 212 217 128 321 128 c 0
EndSplineSet
EndChar

StartChar: b
Encoding: 98 98 1
Width: 641
VWidth: 0
Flags: HW
HStem: 12 116<235 405> 504 116<233 405>
VStem: 16 116<233 402 556 797> 509 116<232 401>
LayerCount: 2
Fore
SplineSet
74 811 m 0
 106 811 132 784 132 752 c 2
 132 556 l 1
 184 597 249 620 320 620 c 0
 488 620 625 484 625 316 c 0
 625 148 488 12 320 12 c 0
 152 12 16 148 16 316 c 2
 16 752 l 2
 16 784 42 811 74 811 c 0
320 504 m 0
 216 504 132 420 132 316 c 0
 132 212 216 128 320 128 c 0
 424 128 509 212 509 316 c 0
 509 420 424 504 320 504 c 0
EndSplineSet
EndChar

StartChar: c
Encoding: 99 99 2
Width: 568
VWidth: 0
Flags: HW
HStem: 12 116<232 408> 504 116<230 410>
VStem: 16 116<229 406>
LayerCount: 2
Fore
SplineSet
104 102 m 0
 44 162 16 239 16 316 c 0
 16 393 44 472 104 532 c 0
 164 592 243 620 320 620 c 0
 397 620 477 592 537 532 c 0
 548 521 552 505 552 491 c 0
 552 477 548 461 537 450 c 0
 526 439 509 432 495 432 c 0
 481 432 465 439 454 450 c 0
 416 488 369 504 320 504 c 0
 271 504 225 488 187 450 c 0
 149 412 132 365 132 316 c 0
 132 267 149 222 187 184 c 0
 225 146 271 128 320 128 c 0
 369 128 416 146 454 184 c 0
 465 195 481 200 495 200 c 0
 509 200 526 195 537 184 c 0
 548 173 552 157 552 143 c 0
 552 129 548 113 537 102 c 0
 477 42 397 12 320 12 c 0
 243 12 164 42 104 102 c 0
EndSplineSet
EndChar

StartChar: d
Encoding: 100 100 3
Width: 641
VWidth: 0
Flags: HW
HStem: 12 116<235 405> 504 116<235 408>
VStem: 16 116<232 401> 509 116<233 402 556 797>
LayerCount: 2
Fore
SplineSet
509 556 m 1
 509 752 l 2
 509 784 536 811 568 811 c 0
 600 811 625 784 625 752 c 2
 625 316 l 2
 625 148 488 12 320 12 c 0
 152 12 16 148 16 316 c 0
 16 484 152 620 320 620 c 0
 391 620 457 597 509 556 c 1
320 504 m 0
 216 504 132 420 132 316 c 0
 132 212 216 128 320 128 c 0
 424 128 509 212 509 316 c 0
 509 420 424 504 320 504 c 0
EndSplineSet
EndChar

StartChar: e
Encoding: 101 101 4
Width: 641
VWidth: 0
Flags: HW
HStem: 12 116<237 365> 259 116<142 499> 504 116<235 405>
VStem: 16 363<71 316>
LayerCount: 2
Fore
SplineSet
320 620 m 0
 488 620 625 484 625 316 c 0
 625 284 600 259 568 259 c 2
 142 259 l 1
 166 184 236 128 320 128 c 0
 352 128 379 103 379 71 c 0
 379 39 352 12 320 12 c 0
 152 12 16 148 16 316 c 0
 16 484 152 620 320 620 c 0
320 504 m 0
 236 504 166 450 142 375 c 1
 499 375 l 1
 475 450 404 504 320 504 c 0
EndSplineSet
EndChar

StartChar: f
Encoding: 102 102 5
Width: 395
VWidth: 0
Flags: HW
HStem: 12 23G<58 90> 504 116<234 365> 693 117<237 365>
VStem: 16 116<26 402>
LayerCount: 2
Fore
SplineSet
16 71 m 2
 16 504 l 2
 16 672 152 811 320 811 c 0
 352 811 379 784 379 752 c 0
 379 720 352 693 320 693 c 0
 236 693 166 638 142 563 c 1
 193 601 254 620 320 620 c 0
 352 620 379 595 379 563 c 0
 379 531 352 504 320 504 c 0
 216 504 132 420 132 316 c 2
 132 71 l 2
 132 39 106 12 74 12 c 0
 42 12 16 39 16 71 c 2
EndSplineSet
EndChar

StartChar: g
Encoding: 103 103 6
Width: 641
VWidth: 0
Flags: HW
HStem: -179 116<230 410> 9 116<235 406> 501 117<235 408>
VStem: 16 116<228 397> 509 116<227 399 553 604>
LayerCount: 2
Fore
SplineSet
454 -9 m 0
 476 13 490 38 499 66 c 1
 448 28 386 9 320 9 c 0
 152 9 16 145 16 313 c 0
 16 481 152 618 320 618 c 0
 391 618 457 594 509 553 c 1
 509 558 l 2
 509 590 536 618 568 618 c 0
 600 618 625 590 625 558 c 2
 625 313 l 1
 625 125 l 2
 625 48 597 -31 537 -91 c 0
 477 -151 397 -179 320 -179 c 0
 243 -179 164 -151 104 -91 c 0
 93 -80 88 -64 88 -50 c 0
 88 -36 93 -20 104 -9 c 0
 115 2 131 9 145 9 c 0
 159 9 176 2 187 -9 c 0
 225 -47 271 -63 320 -63 c 0
 369 -63 416 -47 454 -9 c 0
320 125 m 0
 424 125 509 209 509 313 c 0
 509 417 424 501 320 501 c 0
 216 501 132 417 132 313 c 0
 132 209 216 125 320 125 c 0
EndSplineSet
EndChar

StartChar: h
Encoding: 104 104 7
Width: 641
VWidth: 0
Flags: HW
HStem: 12 23G<58 90 552 584> 504 116<233 405>
VStem: 16 116<26 402 556 797> 509 116<26 400>
LayerCount: 2
Fore
SplineSet
16 752 m 2
 16 784 42 811 74 811 c 0
 106 811 132 784 132 752 c 2
 132 556 l 1
 184 597 249 620 320 620 c 0
 488 620 625 484 625 316 c 2
 625 71 l 2
 625 39 600 12 568 12 c 0
 536 12 509 39 509 71 c 2
 509 316 l 2
 509 420 424 504 320 504 c 0
 216 504 132 420 132 316 c 2
 132 71 l 2
 132 39 106 12 74 12 c 0
 42 12 16 39 16 71 c 2
 16 410 l 1
 16 752 l 2
EndSplineSet
EndChar

StartChar: i
Encoding: 105 105 8
Width: 148
VWidth: 0
Flags: HW
HStem: 12 23G<58 90> 693 117<29 119>
VStem: 16 116<26 607 707 797>
LayerCount: 2
Fore
SplineSet
132 752 m 0
 132 720 106 693 74 693 c 0
 42 693 16 720 16 752 c 0
 16 784 42 811 74 811 c 0
 106 811 132 784 132 752 c 0
132 71 m 2
 132 39 106 12 74 12 c 0
 42 12 16 39 16 71 c 2
 16 563 l 2
 16 595 42 620 74 620 c 0
 106 620 132 595 132 563 c 2
 132 71 l 2
EndSplineSet
EndChar

StartChar: j
Encoding: 106 106 9
Width: 220
VWidth: 0
Flags: HW
HStem: 693 117<101 190>
VStem: 88 116<39 607 707 797>
LayerCount: 2
Fore
SplineSet
114 -87 m 0
 103 -98 88 -105 74 -105 c 0
 60 -105 45 -98 34 -87 c 0
 23 -76 16 -60 16 -46 c 0
 16 -32 23 -15 34 -4 c 0
 72 34 88 79 88 128 c 2
 88 563 l 2
 88 595 113 620 145 620 c 0
 177 620 204 595 204 563 c 2
 204 128 l 2
 204 51 174 -27 114 -87 c 0
145 693 m 0
 113 693 88 720 88 752 c 0
 88 784 113 811 145 811 c 0
 177 811 204 784 204 752 c 0
 204 720 177 693 145 693 c 0
EndSplineSet
EndChar

StartChar: k
Encoding: 107 107 10
Width: 395
VWidth: 0
Flags: HW
HStem: 12 23G<58 90 312 336>
VStem: 16 116<26 176 458 797>
LayerCount: 2
Fore
SplineSet
132 71 m 2
 132 39 106 12 74 12 c 0
 42 12 16 39 16 71 c 2
 16 752 l 2
 16 784 42 811 74 811 c 0
 106 811 132 784 132 752 c 2
 132 458 l 1
 182 508 237 563 279 605 c 0
 289 616 305 620 319 620 c 0
 320 620 l 0
 321 620 l 0
 351 620 379 595 379 565 c 0
 379 546 373 533 362 522 c 0
 303 463 215 375 156 316 c 1
 211 261 307 167 362 112 c 0
 373 101 379 87 379 69 c 0
 379 39 351 12 321 12 c 0
 320 12 l 0
 319 12 l 0
 305 12 289 19 279 29 c 0
 241 67 183 125 132 176 c 1
 132 71 l 2
EndSplineSet
EndChar

StartChar: l
Encoding: 108 108 11
Width: 148
VWidth: 0
Flags: HW
HStem: 12 23G<58 90>
VStem: 16 116<26 797>
LayerCount: 2
Fore
SplineSet
74 12 m 0
 42 12 16 39 16 71 c 2
 16 752 l 2
 16 784 42 811 74 811 c 0
 106 811 132 784 132 752 c 2
 132 71 l 2
 132 39 106 12 74 12 c 0
EndSplineSet
EndChar

StartChar: m
Encoding: 109 109 12
Width: 1132
VWidth: 0
Flags: HW
HStem: 598 116<233 406 726 896>
VStem: 16 116<118 495 649 701> 508 116<118 495> 1000 116<118 493>
LayerCount: 2
Fore
SplineSet
320 620 m 0
 421 620 512 571 567 495 c 1
 622 571 711 620 812 620 c 0
 980 620 1116 484 1116 316 c 2
 1116 71 l 2
 1116 39 1090 12 1058 12 c 0
 1026 12 1000 39 1000 71 c 2
 1000 316 l 2
 1000 420 916 504 812 504 c 0
 708 504 624 420 624 316 c 2
 624 71 l 2
 624 39 599 12 567 12 c 0
 535 12 508 39 508 71 c 2
 508 316 l 2
 508 420 424 504 320 504 c 0
 216 504 132 420 132 316 c 2
 132 71 l 2
 132 39 106 12 74 12 c 0
 42 12 16 39 16 71 c 2
 16 410 l 1
 16 563 l 2
 16 595 42 620 74 620 c 0
 106 620 132 595 132 563 c 2
 132 556 l 1
 184 597 249 620 320 620 c 0
EndSplineSet
EndChar

StartChar: n
Encoding: 110 110 13
Width: 641
VWidth: 0
Flags: HW
HStem: 12 23G<58 90 552 584> 504 116<233 405>
VStem: 16 116<26 402 556 607> 509 116<26 400>
LayerCount: 2
Fore
SplineSet
16 563 m 2
 16 595 42 620 74 620 c 0
 106 620 132 595 132 563 c 2
 132 556 l 1
 184 597 249 620 320 620 c 0
 488 620 625 484 625 316 c 2
 625 71 l 2
 625 39 600 12 568 12 c 0
 536 12 509 39 509 71 c 2
 509 316 l 2
 509 420 424 504 320 504 c 0
 216 504 132 420 132 316 c 2
 132 71 l 2
 132 39 106 12 74 12 c 0
 42 12 16 39 16 71 c 2
 16 410 l 1
 16 563 l 2
EndSplineSet
EndChar

StartChar: o
Encoding: 111 111 14
Width: 641
VWidth: 0
Flags: HW
HStem: 12 116<235 405> 504 116<235 405>
VStem: 16 116<232 401> 509 116<232 401>
LayerCount: 2
Fore
SplineSet
509 316 m 0
 509 420 424 504 320 504 c 0
 216 504 132 420 132 316 c 0
 132 212 216 128 320 128 c 0
 424 128 509 212 509 316 c 0
625 316 m 0
 625 148 488 12 320 12 c 0
 152 12 16 148 16 316 c 0
 16 484 152 620 320 620 c 0
 488 620 625 484 625 316 c 0
EndSplineSet
EndChar

StartChar: p
Encoding: 112 112 15
Width: 641
VWidth: 0
Flags: HW
HStem: 12 116<233 405> 504 116<235 405>
VStem: 16 116<-163 76 231 400> 509 116<232 401>
LayerCount: 2
Fore
SplineSet
132 76 m 1
 132 -118 l 2
 132 -150 106 -177 74 -177 c 0
 42 -177 16 -150 16 -118 c 2
 16 316 l 2
 16 484 152 620 320 620 c 0
 488 620 625 484 625 316 c 0
 625 148 488 12 320 12 c 0
 249 12 184 35 132 76 c 1
320 128 m 0
 424 128 509 212 509 316 c 0
 509 420 424 504 320 504 c 0
 216 504 132 420 132 316 c 0
 132 212 216 128 320 128 c 0
EndSplineSet
EndChar

StartChar: q
Encoding: 113 113 16
Width: 641
VWidth: 0
Flags: HW
HStem: 12 116<235 408> 504 116<235 405>
VStem: 16 116<232 401> 509 116<-163 76 231 400>
LayerCount: 2
Fore
SplineSet
509 76 m 1
 457 35 391 12 320 12 c 0
 152 12 16 148 16 316 c 0
 16 484 152 620 320 620 c 0
 488 620 625 484 625 316 c 2
 625 -118 l 2
 625 -150 600 -177 568 -177 c 0
 536 -177 509 -150 509 -118 c 2
 509 76 l 1
320 128 m 0
 424 128 509 212 509 316 c 0
 509 420 424 504 320 504 c 0
 216 504 132 420 132 316 c 0
 132 212 216 128 320 128 c 0
EndSplineSet
EndChar

StartChar: r
Encoding: 114 114 17
Width: 395
VWidth: 0
Flags: HW
HStem: 12 23G<58 90> 504 116<234 365>
VStem: 16 116<26 402 556 607>
LayerCount: 2
Fore
SplineSet
132 316 m 2
 132 71 l 2
 132 39 106 12 74 12 c 0
 42 12 16 39 16 71 c 2
 16 410 l 1
 16 563 l 2
 16 595 42 620 74 620 c 0
 106 620 132 595 132 563 c 2
 132 556 l 1
 184 597 249 620 320 620 c 0
 352 620 379 595 379 563 c 0
 379 531 352 504 320 504 c 0
 216 504 132 420 132 316 c 2
EndSplineSet
EndChar

StartChar: s
Encoding: 115 115 18
Width: 496
VWidth: 0
Flags: HW
HStem: 12 116<158 331> 504 116<165 338>
LayerCount: 2
Fore
SplineSet
34 532 m 0
 94 592 171 620 248 620 c 0
 325 620 404 592 464 532 c 0
 475 521 480 505 480 491 c 0
 480 477 475 461 464 450 c 0
 453 439 437 432 423 432 c 0
 409 432 393 439 382 450 c 0
 344 488 297 504 248 504 c 0
 218 504 191 497 163 484 c 1
 464 184 l 2
 475 173 480 157 480 143 c 0
 480 129 475 113 464 102 c 0
 404 42 325 12 248 12 c 0
 171 12 94 42 34 102 c 0
 23 113 16 129 16 143 c 0
 16 157 23 173 34 184 c 0
 45 195 60 200 74 200 c 0
 88 200 103 195 114 184 c 0
 152 146 199 128 248 128 c 0
 278 128 305 135 333 148 c 1
 34 450 l 2
 23 461 16 477 16 491 c 0
 16 505 23 521 34 532 c 0
EndSplineSet
EndChar

StartChar: t
Encoding: 116 116 19
Width: 395
VWidth: 0
Flags: HW
HStem: 12 23G<58 90> 504 116<234 365>
VStem: 16 116<26 402 556 797>
LayerCount: 2
Fore
SplineSet
132 316 m 2
 132 71 l 2
 132 39 106 12 74 12 c 0
 42 12 16 39 16 71 c 2
 16 410 l 1
 16 752 l 2
 16 784 42 811 74 811 c 0
 106 811 132 784 132 752 c 2
 132 556 l 1
 184 597 249 620 320 620 c 0
 352 620 379 595 379 563 c 0
 379 531 352 504 320 504 c 0
 216 504 132 420 132 316 c 2
EndSplineSet
EndChar

StartChar: u
Encoding: 117 117 20
Width: 641
VWidth: 0
Flags: HW
HStem: 12 116<235 408>
VStem: 16 116<233 607> 509 116<26 76 231 607>
LayerCount: 2
Fore
SplineSet
625 71 m 2
 625 39 600 12 568 12 c 0
 536 12 509 39 509 71 c 2
 509 76 l 1
 457 35 391 12 320 12 c 0
 152 12 16 148 16 316 c 2
 16 563 l 2
 16 595 42 620 74 620 c 0
 106 620 132 595 132 563 c 2
 132 316 l 2
 132 212 216 128 320 128 c 0
 424 128 509 212 509 316 c 2
 509 563 l 2
 509 595 536 620 568 620 c 0
 600 620 625 595 625 563 c 2
 625 222 l 1
 625 71 l 2
EndSplineSet
EndChar

StartChar: v
Encoding: 118 118 21
Width: 641
VWidth: 0
Flags: HW
HStem: 12 116<235 405>
VStem: 16 116<233 607> 509 116<233 607>
LayerCount: 2
Fore
SplineSet
16 563 m 2
 16 595 42 620 74 620 c 0
 106 620 132 595 132 563 c 2
 132 316 l 2
 132 212 216 128 320 128 c 0
 424 128 509 212 509 316 c 2
 509 563 l 2
 509 595 536 620 568 620 c 0
 600 620 625 595 625 563 c 2
 625 316 l 2
 625 148 488 12 320 12 c 0
 152 12 16 148 16 316 c 2
 16 563 l 2
EndSplineSet
EndChar

StartChar: w
Encoding: 119 119 22
Width: 1132
VWidth: 0
Flags: HW
HStem: 13 117<230 408 723 902>
VStem: 16 116<233 608> 508 116<231 608> 1001 116<233 608>
LayerCount: 2
Fore
SplineSet
320 13 m 0
 153 13 16 149 16 316 c 2
 16 562 l 2
 16 594 41 620 73 620 c 0
 105 620 132 594 132 562 c 2
 132 316 l 2
 132 212 216 129 320 129 c 0
 424 129 508 212 508 316 c 2
 508 562 l 2
 508 594 533 620 565 620 c 0
 597 620 623 594 623 562 c 2
 623 316 l 2
 623 212 707 129 811 129 c 0
 915 129 1001 212 1001 316 c 2
 1001 562 l 2
 1001 594 1027 620 1059 620 c 0
 1091 620 1116 594 1116 562 c 2
 1116 316 l 2
 1116 149 978 13 811 13 c 0
 709 13 620 62 565 138 c 1
 510 62 422 13 320 13 c 0
EndSplineSet
EndChar

StartChar: x
Encoding: 120 120 23
Width: 641
VWidth: 0
Flags: HW
HStem: 12 23G<57 83 559 584>
LayerCount: 2
Fore
SplineSet
568 620 m 0
 569 620 l 0
 599 620 625 595 625 565 c 0
 625 547 621 534 609 522 c 0
 550 463 462 375 403 316 c 1
 458 261 554 167 609 112 c 0
 621 100 625 87 625 69 c 0
 625 39 599 12 569 12 c 0
 568 12 l 0
 567 12 l 0
 553 12 536 19 526 29 c 0
 474 81 372 181 320 233 c 1
 260 173 174 89 114 29 c 0
 104 19 90 12 76 12 c 0
 74 12 l 0
 72 12 l 0
 42 12 16 39 16 69 c 0
 16 87 22 100 34 112 c 2
 238 316 l 1
 34 522 l 2
 22 534 16 547 16 565 c 0
 16 595 42 620 72 620 c 0
 74 620 l 0
 76 620 l 0
 90 620 104 616 114 605 c 2
 320 399 l 1
 380 459 466 545 526 605 c 0
 536 616 553 620 567 620 c 0
 568 620 l 0
EndSplineSet
EndChar

StartChar: y
Encoding: 121 121 24
Width: 641
VWidth: 0
Flags: HW
HStem: -177 116<275 403> 12 116<235 406>
VStem: 16 116<233 607> 509 116<231 607>
LayerCount: 2
Fore
SplineSet
625 128 m 2
 625 -40 488 -177 320 -177 c 0
 288 -177 262 -150 262 -118 c 0
 262 -86 288 -61 320 -61 c 0
 404 -61 475 -4 499 71 c 1
 448 33 386 12 320 12 c 0
 152 12 16 148 16 316 c 2
 16 563 l 2
 16 595 42 620 74 620 c 0
 106 620 132 595 132 563 c 2
 132 316 l 2
 132 212 216 128 320 128 c 0
 424 128 509 212 509 316 c 2
 509 563 l 2
 509 595 536 620 568 620 c 0
 600 620 625 595 625 563 c 2
 625 346 l 1
 625 128 l 2
EndSplineSet
EndChar

StartChar: z
Encoding: 122 122 25
Width: 640
VWidth: 0
Flags: HW
HStem: 12 116<214 611> 504 116<29 426>
LayerCount: 2
Fore
SplineSet
624 71 m 0
 624 39 599 12 567 12 c 2
 74 12 l 2
 42 12 16 39 16 71 c 0
 16 88 24 102 34 112 c 2
 426 504 l 1
 74 504 l 2
 42 504 16 531 16 563 c 0
 16 595 42 620 74 620 c 2
 567 620 l 2
 599 620 624 595 624 563 c 0
 624 546 619 532 609 522 c 2
 214 128 l 1
 567 128 l 2
 599 128 624 103 624 71 c 0
EndSplineSet
EndChar

StartChar: A
Encoding: 65 65 26
Width: 641
VWidth: 0
Flags: HW
HStem: 12 116<236 408> 504 116<236 406>
VStem: 16 116<232 401> 509 116<26 76 231 400>
LayerCount: 2
Fore
SplineSet
509 76 m 1
 457 35 392 12 321 12 c 0
 153 12 16 148 16 316 c 0
 16 484 153 620 321 620 c 0
 489 620 625 484 625 316 c 2
 625 71 l 2
 625 39 600 12 568 12 c 0
 536 12 509 39 509 71 c 2
 509 76 l 1
321 128 m 0
 425 128 509 212 509 316 c 0
 509 420 425 504 321 504 c 0
 217 504 132 420 132 316 c 0
 132 212 217 128 321 128 c 0
EndSplineSet
EndChar

StartChar: B
Encoding: 66 66 27
Width: 641
VWidth: 0
Flags: HW
HStem: 12 116<235 405> 504 116<233 405>
VStem: 16 116<233 402 556 797> 509 116<232 401>
LayerCount: 2
Fore
SplineSet
74 811 m 0
 106 811 132 784 132 752 c 2
 132 556 l 1
 184 597 249 620 320 620 c 0
 488 620 625 484 625 316 c 0
 625 148 488 12 320 12 c 0
 152 12 16 148 16 316 c 2
 16 752 l 2
 16 784 42 811 74 811 c 0
320 504 m 0
 216 504 132 420 132 316 c 0
 132 212 216 128 320 128 c 0
 424 128 509 212 509 316 c 0
 509 420 424 504 320 504 c 0
EndSplineSet
EndChar

StartChar: C
Encoding: 67 67 28
Width: 568
VWidth: 0
Flags: HW
HStem: 12 116<232 408> 504 116<230 410>
VStem: 16 116<229 406>
LayerCount: 2
Fore
SplineSet
104 102 m 0
 44 162 16 239 16 316 c 0
 16 393 44 472 104 532 c 0
 164 592 243 620 320 620 c 0
 397 620 477 592 537 532 c 0
 548 521 552 505 552 491 c 0
 552 477 548 461 537 450 c 0
 526 439 509 432 495 432 c 0
 481 432 465 439 454 450 c 0
 416 488 369 504 320 504 c 0
 271 504 225 488 187 450 c 0
 149 412 132 365 132 316 c 0
 132 267 149 222 187 184 c 0
 225 146 271 128 320 128 c 0
 369 128 416 146 454 184 c 0
 465 195 481 200 495 200 c 0
 509 200 526 195 537 184 c 0
 548 173 552 157 552 143 c 0
 552 129 548 113 537 102 c 0
 477 42 397 12 320 12 c 0
 243 12 164 42 104 102 c 0
EndSplineSet
EndChar

StartChar: D
Encoding: 68 68 29
Width: 641
VWidth: 0
Flags: HW
HStem: 12 116<235 405> 504 116<235 408>
VStem: 16 116<232 401> 509 116<233 402 556 797>
LayerCount: 2
Fore
SplineSet
509 556 m 1
 509 752 l 2
 509 784 536 811 568 811 c 0
 600 811 625 784 625 752 c 2
 625 316 l 2
 625 148 488 12 320 12 c 0
 152 12 16 148 16 316 c 0
 16 484 152 620 320 620 c 0
 391 620 457 597 509 556 c 1
320 504 m 0
 216 504 132 420 132 316 c 0
 132 212 216 128 320 128 c 0
 424 128 509 212 509 316 c 0
 509 420 424 504 320 504 c 0
EndSplineSet
EndChar

StartChar: E
Encoding: 69 69 30
Width: 641
VWidth: 0
Flags: HW
HStem: 12 116<237 365> 259 116<142 499> 504 116<235 405>
VStem: 16 363<71 316>
LayerCount: 2
Fore
SplineSet
320 620 m 0
 488 620 625 484 625 316 c 0
 625 284 600 259 568 259 c 2
 142 259 l 1
 166 184 236 128 320 128 c 0
 352 128 379 103 379 71 c 0
 379 39 352 12 320 12 c 0
 152 12 16 148 16 316 c 0
 16 484 152 620 320 620 c 0
320 504 m 0
 236 504 166 450 142 375 c 1
 499 375 l 1
 475 450 404 504 320 504 c 0
EndSplineSet
EndChar

StartChar: F
Encoding: 70 70 31
Width: 395
VWidth: 0
Flags: HW
HStem: 12 23G<58 90> 504 116<234 365> 693 117<237 365>
VStem: 16 116<26 402>
LayerCount: 2
Fore
SplineSet
16 71 m 2
 16 504 l 2
 16 672 152 811 320 811 c 0
 352 811 379 784 379 752 c 0
 379 720 352 693 320 693 c 0
 236 693 166 638 142 563 c 1
 193 601 254 620 320 620 c 0
 352 620 379 595 379 563 c 0
 379 531 352 504 320 504 c 0
 216 504 132 420 132 316 c 2
 132 71 l 2
 132 39 106 12 74 12 c 0
 42 12 16 39 16 71 c 2
EndSplineSet
EndChar

StartChar: G
Encoding: 71 71 32
Width: 641
VWidth: 0
Flags: HW
HStem: -179 116<230 410> 9 116<235 406> 501 117<235 408>
VStem: 16 116<228 397> 509 116<227 399 553 604>
LayerCount: 2
Fore
SplineSet
454 -9 m 0
 476 13 490 38 499 66 c 1
 448 28 386 9 320 9 c 0
 152 9 16 145 16 313 c 0
 16 481 152 618 320 618 c 0
 391 618 457 594 509 553 c 1
 509 558 l 2
 509 590 536 618 568 618 c 0
 600 618 625 590 625 558 c 2
 625 313 l 1
 625 125 l 2
 625 48 597 -31 537 -91 c 0
 477 -151 397 -179 320 -179 c 0
 243 -179 164 -151 104 -91 c 0
 93 -80 88 -64 88 -50 c 0
 88 -36 93 -20 104 -9 c 0
 115 2 131 9 145 9 c 0
 159 9 176 2 187 -9 c 0
 225 -47 271 -63 320 -63 c 0
 369 -63 416 -47 454 -9 c 0
320 125 m 0
 424 125 509 209 509 313 c 0
 509 417 424 501 320 501 c 0
 216 501 132 417 132 313 c 0
 132 209 216 125 320 125 c 0
EndSplineSet
EndChar

StartChar: H
Encoding: 72 72 33
Width: 641
VWidth: 0
Flags: HW
HStem: 12 23G<58 90 552 584> 504 116<233 405>
VStem: 16 116<26 402 556 797> 509 116<26 400>
LayerCount: 2
Fore
SplineSet
16 752 m 2
 16 784 42 811 74 811 c 0
 106 811 132 784 132 752 c 2
 132 556 l 1
 184 597 249 620 320 620 c 0
 488 620 625 484 625 316 c 2
 625 71 l 2
 625 39 600 12 568 12 c 0
 536 12 509 39 509 71 c 2
 509 316 l 2
 509 420 424 504 320 504 c 0
 216 504 132 420 132 316 c 2
 132 71 l 2
 132 39 106 12 74 12 c 0
 42 12 16 39 16 71 c 2
 16 410 l 1
 16 752 l 2
EndSplineSet
EndChar

StartChar: I
Encoding: 73 73 34
Width: 148
VWidth: 0
Flags: HW
HStem: 12 23G<58 90> 693 117<29 119>
VStem: 16 116<26 607 707 797>
LayerCount: 2
Fore
SplineSet
132 752 m 0
 132 720 106 693 74 693 c 0
 42 693 16 720 16 752 c 0
 16 784 42 811 74 811 c 0
 106 811 132 784 132 752 c 0
132 71 m 2
 132 39 106 12 74 12 c 0
 42 12 16 39 16 71 c 2
 16 563 l 2
 16 595 42 620 74 620 c 0
 106 620 132 595 132 563 c 2
 132 71 l 2
EndSplineSet
EndChar

StartChar: J
Encoding: 74 74 35
Width: 220
VWidth: 0
Flags: HW
HStem: 693 117<101 190>
VStem: 88 116<39 607 707 797>
LayerCount: 2
Fore
SplineSet
114 -87 m 0
 103 -98 88 -105 74 -105 c 0
 60 -105 45 -98 34 -87 c 0
 23 -76 16 -60 16 -46 c 0
 16 -32 23 -15 34 -4 c 0
 72 34 88 79 88 128 c 2
 88 563 l 2
 88 595 113 620 145 620 c 0
 177 620 204 595 204 563 c 2
 204 128 l 2
 204 51 174 -27 114 -87 c 0
145 693 m 0
 113 693 88 720 88 752 c 0
 88 784 113 811 145 811 c 0
 177 811 204 784 204 752 c 0
 204 720 177 693 145 693 c 0
EndSplineSet
EndChar

StartChar: K
Encoding: 75 75 36
Width: 395
VWidth: 0
Flags: HW
HStem: 12 23G<58 90 312 336>
VStem: 16 116<26 176 458 797>
LayerCount: 2
Fore
SplineSet
132 71 m 2
 132 39 106 12 74 12 c 0
 42 12 16 39 16 71 c 2
 16 752 l 2
 16 784 42 811 74 811 c 0
 106 811 132 784 132 752 c 2
 132 458 l 1
 182 508 237 563 279 605 c 0
 289 616 305 620 319 620 c 0
 320 620 l 0
 321 620 l 0
 351 620 379 595 379 565 c 0
 379 546 373 533 362 522 c 0
 303 463 215 375 156 316 c 1
 211 261 307 167 362 112 c 0
 373 101 379 87 379 69 c 0
 379 39 351 12 321 12 c 0
 320 12 l 0
 319 12 l 0
 305 12 289 19 279 29 c 0
 241 67 183 125 132 176 c 1
 132 71 l 2
EndSplineSet
EndChar

StartChar: L
Encoding: 76 76 37
Width: 148
VWidth: 0
Flags: HW
HStem: 12 23G<58 90>
VStem: 16 116<26 797>
LayerCount: 2
Fore
SplineSet
74 12 m 0
 42 12 16 39 16 71 c 2
 16 752 l 2
 16 784 42 811 74 811 c 0
 106 811 132 784 132 752 c 2
 132 71 l 2
 132 39 106 12 74 12 c 0
EndSplineSet
EndChar

StartChar: M
Encoding: 77 77 38
Width: 1132
VWidth: 0
Flags: HW
HStem: 598 116<233 406 726 896>
VStem: 16 116<118 495 649 701> 508 116<118 495> 1000 116<118 493>
CounterMasks: 1 70
LayerCount: 2
Fore
SplineSet
320 620 m 0
 421 620 512 571 567 495 c 1
 622 571 711 620 812 620 c 0
 980 620 1116 484 1116 316 c 2
 1116 71 l 2
 1116 39 1090 12 1058 12 c 0
 1026 12 1000 39 1000 71 c 2
 1000 316 l 2
 1000 420 916 504 812 504 c 0
 708 504 624 420 624 316 c 2
 624 71 l 2
 624 39 599 12 567 12 c 0
 535 12 508 39 508 71 c 2
 508 316 l 2
 508 420 424 504 320 504 c 0
 216 504 132 420 132 316 c 2
 132 71 l 2
 132 39 106 12 74 12 c 0
 42 12 16 39 16 71 c 2
 16 410 l 1
 16 563 l 2
 16 595 42 620 74 620 c 0
 106 620 132 595 132 563 c 2
 132 556 l 1
 184 597 249 620 320 620 c 0
EndSplineSet
EndChar

StartChar: N
Encoding: 78 78 39
Width: 641
VWidth: 0
Flags: HW
HStem: 12 23G<58 90 552 584> 504 116<233 405>
VStem: 16 116<26 402 556 607> 509 116<26 400>
LayerCount: 2
Fore
SplineSet
16 563 m 2
 16 595 42 620 74 620 c 0
 106 620 132 595 132 563 c 2
 132 556 l 1
 184 597 249 620 320 620 c 0
 488 620 625 484 625 316 c 2
 625 71 l 2
 625 39 600 12 568 12 c 0
 536 12 509 39 509 71 c 2
 509 316 l 2
 509 420 424 504 320 504 c 0
 216 504 132 420 132 316 c 2
 132 71 l 2
 132 39 106 12 74 12 c 0
 42 12 16 39 16 71 c 2
 16 410 l 1
 16 563 l 2
EndSplineSet
EndChar

StartChar: O
Encoding: 79 79 40
Width: 641
VWidth: 0
Flags: HW
HStem: 12 116<235 405> 504 116<235 405>
VStem: 16 116<232 401> 509 116<232 401>
LayerCount: 2
Fore
SplineSet
509 316 m 0
 509 420 424 504 320 504 c 0
 216 504 132 420 132 316 c 0
 132 212 216 128 320 128 c 0
 424 128 509 212 509 316 c 0
625 316 m 0
 625 148 488 12 320 12 c 0
 152 12 16 148 16 316 c 0
 16 484 152 620 320 620 c 0
 488 620 625 484 625 316 c 0
EndSplineSet
EndChar

StartChar: P
Encoding: 80 80 41
Width: 641
VWidth: 0
Flags: HW
HStem: 12 116<233 405> 504 116<235 405>
VStem: 16 116<-163 76 231 400> 509 116<232 401>
LayerCount: 2
Fore
SplineSet
132 76 m 1
 132 -118 l 2
 132 -150 106 -177 74 -177 c 0
 42 -177 16 -150 16 -118 c 2
 16 316 l 2
 16 484 152 620 320 620 c 0
 488 620 625 484 625 316 c 0
 625 148 488 12 320 12 c 0
 249 12 184 35 132 76 c 1
320 128 m 0
 424 128 509 212 509 316 c 0
 509 420 424 504 320 504 c 0
 216 504 132 420 132 316 c 0
 132 212 216 128 320 128 c 0
EndSplineSet
EndChar

StartChar: Q
Encoding: 81 81 42
Width: 641
VWidth: 0
Flags: HW
HStem: 12 116<235 408> 504 116<235 405>
VStem: 16 116<232 401> 509 116<-163 76 231 400>
LayerCount: 2
Fore
SplineSet
509 76 m 1
 457 35 391 12 320 12 c 0
 152 12 16 148 16 316 c 0
 16 484 152 620 320 620 c 0
 488 620 625 484 625 316 c 2
 625 -118 l 2
 625 -150 600 -177 568 -177 c 0
 536 -177 509 -150 509 -118 c 2
 509 76 l 1
320 128 m 0
 424 128 509 212 509 316 c 0
 509 420 424 504 320 504 c 0
 216 504 132 420 132 316 c 0
 132 212 216 128 320 128 c 0
EndSplineSet
EndChar

StartChar: R
Encoding: 82 82 43
Width: 395
VWidth: 0
Flags: HW
HStem: 12 23G<58 90> 504 116<234 365>
VStem: 16 116<26 402 556 607>
LayerCount: 2
Fore
SplineSet
132 316 m 2
 132 71 l 2
 132 39 106 12 74 12 c 0
 42 12 16 39 16 71 c 2
 16 410 l 1
 16 563 l 2
 16 595 42 620 74 620 c 0
 106 620 132 595 132 563 c 2
 132 556 l 1
 184 597 249 620 320 620 c 0
 352 620 379 595 379 563 c 0
 379 531 352 504 320 504 c 0
 216 504 132 420 132 316 c 2
EndSplineSet
EndChar

StartChar: S
Encoding: 83 83 44
Width: 496
VWidth: 0
Flags: HW
HStem: 12 116<158 331> 504 116<165 338>
LayerCount: 2
Fore
SplineSet
34 532 m 0
 94 592 171 620 248 620 c 0
 325 620 404 592 464 532 c 0
 475 521 480 505 480 491 c 0
 480 477 475 461 464 450 c 0
 453 439 437 432 423 432 c 0
 409 432 393 439 382 450 c 0
 344 488 297 504 248 504 c 0
 218 504 191 497 163 484 c 1
 464 184 l 2
 475 173 480 157 480 143 c 0
 480 129 475 113 464 102 c 0
 404 42 325 12 248 12 c 0
 171 12 94 42 34 102 c 0
 23 113 16 129 16 143 c 0
 16 157 23 173 34 184 c 0
 45 195 60 200 74 200 c 0
 88 200 103 195 114 184 c 0
 152 146 199 128 248 128 c 0
 278 128 305 135 333 148 c 1
 34 450 l 2
 23 461 16 477 16 491 c 0
 16 505 23 521 34 532 c 0
EndSplineSet
EndChar

StartChar: T
Encoding: 84 84 45
Width: 395
VWidth: 0
Flags: HW
HStem: 12 23G<58 90> 504 116<234 365>
VStem: 16 116<26 402 556 797>
LayerCount: 2
Fore
SplineSet
132 316 m 2
 132 71 l 2
 132 39 106 12 74 12 c 0
 42 12 16 39 16 71 c 2
 16 410 l 1
 16 752 l 2
 16 784 42 811 74 811 c 0
 106 811 132 784 132 752 c 2
 132 556 l 1
 184 597 249 620 320 620 c 0
 352 620 379 595 379 563 c 0
 379 531 352 504 320 504 c 0
 216 504 132 420 132 316 c 2
EndSplineSet
EndChar

StartChar: U
Encoding: 85 85 46
Width: 641
VWidth: 0
Flags: HW
HStem: 12 116<235 408>
VStem: 16 116<233 607> 509 116<26 76 231 607>
LayerCount: 2
Fore
SplineSet
625 71 m 2
 625 39 600 12 568 12 c 0
 536 12 509 39 509 71 c 2
 509 76 l 1
 457 35 391 12 320 12 c 0
 152 12 16 148 16 316 c 2
 16 563 l 2
 16 595 42 620 74 620 c 0
 106 620 132 595 132 563 c 2
 132 316 l 2
 132 212 216 128 320 128 c 0
 424 128 509 212 509 316 c 2
 509 563 l 2
 509 595 536 620 568 620 c 0
 600 620 625 595 625 563 c 2
 625 222 l 1
 625 71 l 2
EndSplineSet
EndChar

StartChar: V
Encoding: 86 86 47
Width: 641
VWidth: 0
Flags: HW
HStem: 12 116<235 405>
VStem: 16 116<233 607> 509 116<233 607>
LayerCount: 2
Fore
SplineSet
16 563 m 2
 16 595 42 620 74 620 c 0
 106 620 132 595 132 563 c 2
 132 316 l 2
 132 212 216 128 320 128 c 0
 424 128 509 212 509 316 c 2
 509 563 l 2
 509 595 536 620 568 620 c 0
 600 620 625 595 625 563 c 2
 625 316 l 2
 625 148 488 12 320 12 c 0
 152 12 16 148 16 316 c 2
 16 563 l 2
EndSplineSet
EndChar

StartChar: W
Encoding: 87 87 48
Width: 1132
VWidth: 0
Flags: HW
HStem: 13 117<230 408 723 902>
VStem: 16 116<233 608> 508 116<231 608> 1001 116<233 608>
LayerCount: 2
Fore
SplineSet
320 13 m 0
 153 13 16 149 16 316 c 2
 16 562 l 2
 16 594 41 620 73 620 c 0
 105 620 132 594 132 562 c 2
 132 316 l 2
 132 212 216 129 320 129 c 0
 424 129 508 212 508 316 c 2
 508 562 l 2
 508 594 533 620 565 620 c 0
 597 620 623 594 623 562 c 2
 623 316 l 2
 623 212 707 129 811 129 c 0
 915 129 1001 212 1001 316 c 2
 1001 562 l 2
 1001 594 1027 620 1059 620 c 0
 1091 620 1116 594 1116 562 c 2
 1116 316 l 2
 1116 149 978 13 811 13 c 0
 709 13 620 62 565 138 c 1
 510 62 422 13 320 13 c 0
EndSplineSet
EndChar

StartChar: X
Encoding: 88 88 49
Width: 641
VWidth: 0
Flags: HW
HStem: 12 23G<57 83 559 584>
LayerCount: 2
Fore
SplineSet
568 620 m 0
 569 620 l 0
 599 620 625 595 625 565 c 0
 625 547 621 534 609 522 c 0
 550 463 462 375 403 316 c 1
 458 261 554 167 609 112 c 0
 621 100 625 87 625 69 c 0
 625 39 599 12 569 12 c 0
 568 12 l 0
 567 12 l 0
 553 12 536 19 526 29 c 0
 474 81 372 181 320 233 c 1
 260 173 174 89 114 29 c 0
 104 19 90 12 76 12 c 0
 74 12 l 0
 72 12 l 0
 42 12 16 39 16 69 c 0
 16 87 22 100 34 112 c 2
 238 316 l 1
 34 522 l 2
 22 534 16 547 16 565 c 0
 16 595 42 620 72 620 c 0
 74 620 l 0
 76 620 l 0
 90 620 104 616 114 605 c 2
 320 399 l 1
 380 459 466 545 526 605 c 0
 536 616 553 620 567 620 c 0
 568 620 l 0
EndSplineSet
EndChar

StartChar: Y
Encoding: 89 89 50
Width: 641
VWidth: 0
Flags: HW
HStem: -177 116<275 403> 12 116<235 406>
VStem: 16 116<233 607> 509 116<231 607>
LayerCount: 2
Fore
SplineSet
625 128 m 2
 625 -40 488 -177 320 -177 c 0
 288 -177 262 -150 262 -118 c 0
 262 -86 288 -61 320 -61 c 0
 404 -61 475 -4 499 71 c 1
 448 33 386 12 320 12 c 0
 152 12 16 148 16 316 c 2
 16 563 l 2
 16 595 42 620 74 620 c 0
 106 620 132 595 132 563 c 2
 132 316 l 2
 132 212 216 128 320 128 c 0
 424 128 509 212 509 316 c 2
 509 563 l 2
 509 595 536 620 568 620 c 0
 600 620 625 595 625 563 c 2
 625 346 l 1
 625 128 l 2
EndSplineSet
EndChar

StartChar: Z
Encoding: 90 90 51
Width: 640
VWidth: 0
Flags: HW
HStem: 12 116<214 611> 504 116<29 426>
LayerCount: 2
Fore
SplineSet
624 71 m 0
 624 39 599 12 567 12 c 2
 74 12 l 2
 42 12 16 39 16 71 c 0
 16 88 24 102 34 112 c 2
 426 504 l 1
 74 504 l 2
 42 504 16 531 16 563 c 0
 16 595 42 620 74 620 c 2
 567 620 l 2
 599 620 624 595 624 563 c 0
 624 546 619 532 609 522 c 2
 214 128 l 1
 567 128 l 2
 599 128 624 103 624 71 c 0
EndSplineSet
EndChar

StartChar: Aring
Encoding: 197 197 52
Width: 641
VWidth: 0
Flags: HW
HStem: 12 116<236 408> 504 116<236 406>
VStem: 16 116<232 401> 509 116<26 76 231 400>
LayerCount: 2
Fore
SplineSet
509 76 m 5
 457 35 392 12 321 12 c 4
 153 12 16 148 16 316 c 4
 16 484 153 620 321 620 c 4
 489 620 625 484 625 316 c 6
 625 71 l 6
 625 39 600 12 568 12 c 4
 536 12 509 39 509 71 c 6
 509 76 l 5
321 128 m 4
 425 128 509 212 509 316 c 4
 509 420 425 504 321 504 c 4
 217 504 132 420 132 316 c 4
 132 212 217 128 321 128 c 4
EndSplineSet
EndChar

StartChar: Adieresis
Encoding: 196 196 53
Width: 641
VWidth: 0
Flags: HW
HStem: 12 116<236 408> 504 116<236 406>
VStem: 16 116<232 401> 509 116<26 76 231 400>
LayerCount: 2
Fore
SplineSet
509 76 m 1
 457 35 392 12 321 12 c 0
 153 12 16 148 16 316 c 0
 16 484 153 620 321 620 c 0
 489 620 625 484 625 316 c 2
 625 71 l 2
 625 39 600 12 568 12 c 0
 536 12 509 39 509 71 c 2
 509 76 l 1
321 128 m 0
 425 128 509 212 509 316 c 0
 509 420 425 504 321 504 c 0
 217 504 132 420 132 316 c 0
 132 212 217 128 321 128 c 0
EndSplineSet
EndChar

StartChar: Agrave
Encoding: 192 192 54
Width: 641
VWidth: 0
Flags: HW
HStem: 12 116<236 408> 504 116<236 406>
VStem: 16 116<232 401> 509 116<26 76 231 400>
LayerCount: 2
Fore
SplineSet
509 76 m 1
 457 35 392 12 321 12 c 0
 153 12 16 148 16 316 c 0
 16 484 153 620 321 620 c 0
 489 620 625 484 625 316 c 2
 625 71 l 2
 625 39 600 12 568 12 c 0
 536 12 509 39 509 71 c 2
 509 76 l 1
321 128 m 0
 425 128 509 212 509 316 c 0
 509 420 425 504 321 504 c 0
 217 504 132 420 132 316 c 0
 132 212 217 128 321 128 c 0
EndSplineSet
EndChar

StartChar: Aacute
Encoding: 193 193 55
Width: 641
VWidth: 0
Flags: HW
HStem: 12 116<236 408> 504 116<236 406>
VStem: 16 116<232 401> 509 116<26 76 231 400>
LayerCount: 2
Fore
SplineSet
509 76 m 1
 457 35 392 12 321 12 c 0
 153 12 16 148 16 316 c 0
 16 484 153 620 321 620 c 0
 489 620 625 484 625 316 c 2
 625 71 l 2
 625 39 600 12 568 12 c 0
 536 12 509 39 509 71 c 2
 509 76 l 1
321 128 m 0
 425 128 509 212 509 316 c 0
 509 420 425 504 321 504 c 0
 217 504 132 420 132 316 c 0
 132 212 217 128 321 128 c 0
EndSplineSet
EndChar

StartChar: Acircumflex
Encoding: 194 194 56
Width: 641
VWidth: 0
Flags: HW
HStem: 12 116<236 408> 504 116<236 406>
VStem: 16 116<232 401> 509 116<26 76 231 400>
LayerCount: 2
Fore
SplineSet
509 76 m 1
 457 35 392 12 321 12 c 0
 153 12 16 148 16 316 c 0
 16 484 153 620 321 620 c 0
 489 620 625 484 625 316 c 2
 625 71 l 2
 625 39 600 12 568 12 c 0
 536 12 509 39 509 71 c 2
 509 76 l 1
321 128 m 0
 425 128 509 212 509 316 c 0
 509 420 425 504 321 504 c 0
 217 504 132 420 132 316 c 0
 132 212 217 128 321 128 c 0
EndSplineSet
EndChar

StartChar: Atilde
Encoding: 195 195 57
Width: 641
VWidth: 0
Flags: HW
HStem: 12 116<236 408> 504 116<236 406>
VStem: 16 116<232 401> 509 116<26 76 231 400>
LayerCount: 2
Fore
SplineSet
509 76 m 1
 457 35 392 12 321 12 c 0
 153 12 16 148 16 316 c 0
 16 484 153 620 321 620 c 0
 489 620 625 484 625 316 c 2
 625 71 l 2
 625 39 600 12 568 12 c 0
 536 12 509 39 509 71 c 2
 509 76 l 1
321 128 m 0
 425 128 509 212 509 316 c 0
 509 420 425 504 321 504 c 0
 217 504 132 420 132 316 c 0
 132 212 217 128 321 128 c 0
EndSplineSet
EndChar

StartChar: agrave
Encoding: 224 224 58
Width: 641
VWidth: 0
Flags: HW
HStem: 12 116<236 408> 504 116<236 406>
VStem: 16 116<232 401> 509 116<26 76 231 400>
LayerCount: 2
Fore
SplineSet
509 76 m 1
 457 35 392 12 321 12 c 0
 153 12 16 148 16 316 c 0
 16 484 153 620 321 620 c 0
 489 620 625 484 625 316 c 2
 625 71 l 2
 625 39 600 12 568 12 c 0
 536 12 509 39 509 71 c 2
 509 76 l 1
321 128 m 0
 425 128 509 212 509 316 c 0
 509 420 425 504 321 504 c 0
 217 504 132 420 132 316 c 0
 132 212 217 128 321 128 c 0
EndSplineSet
EndChar

StartChar: aacute
Encoding: 225 225 59
Width: 641
VWidth: 0
Flags: HW
HStem: 12 116<236 408> 504 116<236 406>
VStem: 16 116<232 401> 509 116<26 76 231 400>
LayerCount: 2
Fore
SplineSet
509 76 m 1
 457 35 392 12 321 12 c 0
 153 12 16 148 16 316 c 0
 16 484 153 620 321 620 c 0
 489 620 625 484 625 316 c 2
 625 71 l 2
 625 39 600 12 568 12 c 0
 536 12 509 39 509 71 c 2
 509 76 l 1
321 128 m 0
 425 128 509 212 509 316 c 0
 509 420 425 504 321 504 c 0
 217 504 132 420 132 316 c 0
 132 212 217 128 321 128 c 0
EndSplineSet
EndChar

StartChar: acircumflex
Encoding: 226 226 60
Width: 641
VWidth: 0
Flags: HW
HStem: 12 116<236 408> 504 116<236 406>
VStem: 16 116<232 401> 509 116<26 76 231 400>
LayerCount: 2
Fore
SplineSet
509 76 m 1
 457 35 392 12 321 12 c 0
 153 12 16 148 16 316 c 0
 16 484 153 620 321 620 c 0
 489 620 625 484 625 316 c 2
 625 71 l 2
 625 39 600 12 568 12 c 0
 536 12 509 39 509 71 c 2
 509 76 l 1
321 128 m 0
 425 128 509 212 509 316 c 0
 509 420 425 504 321 504 c 0
 217 504 132 420 132 316 c 0
 132 212 217 128 321 128 c 0
EndSplineSet
EndChar

StartChar: atilde
Encoding: 227 227 61
Width: 641
VWidth: 0
Flags: HW
HStem: 12 116<236 408> 504 116<236 406>
VStem: 16 116<232 401> 509 116<26 76 231 400>
LayerCount: 2
Fore
SplineSet
509 76 m 1
 457 35 392 12 321 12 c 0
 153 12 16 148 16 316 c 0
 16 484 153 620 321 620 c 0
 489 620 625 484 625 316 c 2
 625 71 l 2
 625 39 600 12 568 12 c 0
 536 12 509 39 509 71 c 2
 509 76 l 1
321 128 m 0
 425 128 509 212 509 316 c 0
 509 420 425 504 321 504 c 0
 217 504 132 420 132 316 c 0
 132 212 217 128 321 128 c 0
EndSplineSet
EndChar

StartChar: adieresis
Encoding: 228 228 62
Width: 641
VWidth: 0
Flags: HW
HStem: 12 116<236 408> 504 116<236 406>
VStem: 16 116<232 401> 509 116<26 76 231 400>
LayerCount: 2
Fore
SplineSet
509 76 m 1
 457 35 392 12 321 12 c 0
 153 12 16 148 16 316 c 0
 16 484 153 620 321 620 c 0
 489 620 625 484 625 316 c 2
 625 71 l 2
 625 39 600 12 568 12 c 0
 536 12 509 39 509 71 c 2
 509 76 l 1
321 128 m 0
 425 128 509 212 509 316 c 0
 509 420 425 504 321 504 c 0
 217 504 132 420 132 316 c 0
 132 212 217 128 321 128 c 0
EndSplineSet
EndChar

StartChar: aring
Encoding: 229 229 63
Width: 641
VWidth: 0
Flags: HW
HStem: 12 116<236 408> 504 116<236 406>
VStem: 16 116<232 401> 509 116<26 76 231 400>
LayerCount: 2
Fore
SplineSet
509 76 m 1
 457 35 392 12 321 12 c 0
 153 12 16 148 16 316 c 0
 16 484 153 620 321 620 c 0
 489 620 625 484 625 316 c 2
 625 71 l 2
 625 39 600 12 568 12 c 0
 536 12 509 39 509 71 c 2
 509 76 l 1
321 128 m 0
 425 128 509 212 509 316 c 0
 509 420 425 504 321 504 c 0
 217 504 132 420 132 316 c 0
 132 212 217 128 321 128 c 0
EndSplineSet
EndChar

StartChar: Ograve
Encoding: 210 210 64
Width: 641
VWidth: 0
Flags: HW
HStem: 12 116<235 405> 504 116<235 405>
VStem: 16 116<232 401> 509 116<232 401>
LayerCount: 2
Fore
SplineSet
509 316 m 0
 509 420 424 504 320 504 c 0
 216 504 132 420 132 316 c 0
 132 212 216 128 320 128 c 0
 424 128 509 212 509 316 c 0
625 316 m 0
 625 148 488 12 320 12 c 0
 152 12 16 148 16 316 c 0
 16 484 152 620 320 620 c 0
 488 620 625 484 625 316 c 0
EndSplineSet
EndChar

StartChar: Oacute
Encoding: 211 211 65
Width: 641
VWidth: 0
Flags: HW
HStem: 12 116<235 405> 504 116<235 405>
VStem: 16 116<232 401> 509 116<232 401>
LayerCount: 2
Fore
SplineSet
509 316 m 0
 509 420 424 504 320 504 c 0
 216 504 132 420 132 316 c 0
 132 212 216 128 320 128 c 0
 424 128 509 212 509 316 c 0
625 316 m 0
 625 148 488 12 320 12 c 0
 152 12 16 148 16 316 c 0
 16 484 152 620 320 620 c 0
 488 620 625 484 625 316 c 0
EndSplineSet
EndChar

StartChar: Ocircumflex
Encoding: 212 212 66
Width: 641
VWidth: 0
Flags: HW
HStem: 12 116<235 405> 504 116<235 405>
VStem: 16 116<232 401> 509 116<232 401>
LayerCount: 2
Fore
SplineSet
509 316 m 0
 509 420 424 504 320 504 c 0
 216 504 132 420 132 316 c 0
 132 212 216 128 320 128 c 0
 424 128 509 212 509 316 c 0
625 316 m 0
 625 148 488 12 320 12 c 0
 152 12 16 148 16 316 c 0
 16 484 152 620 320 620 c 0
 488 620 625 484 625 316 c 0
EndSplineSet
EndChar

StartChar: Otilde
Encoding: 213 213 67
Width: 641
VWidth: 0
Flags: HW
HStem: 12 116<235 405> 504 116<235 405>
VStem: 16 116<232 401> 509 116<232 401>
LayerCount: 2
Fore
SplineSet
509 316 m 0
 509 420 424 504 320 504 c 0
 216 504 132 420 132 316 c 0
 132 212 216 128 320 128 c 0
 424 128 509 212 509 316 c 0
625 316 m 0
 625 148 488 12 320 12 c 0
 152 12 16 148 16 316 c 0
 16 484 152 620 320 620 c 0
 488 620 625 484 625 316 c 0
EndSplineSet
EndChar

StartChar: Odieresis
Encoding: 214 214 68
Width: 641
VWidth: 0
Flags: HW
HStem: 12 116<235 405> 504 116<235 405>
VStem: 16 116<232 401> 509 116<232 401>
LayerCount: 2
Fore
SplineSet
509 316 m 0
 509 420 424 504 320 504 c 0
 216 504 132 420 132 316 c 0
 132 212 216 128 320 128 c 0
 424 128 509 212 509 316 c 0
625 316 m 0
 625 148 488 12 320 12 c 0
 152 12 16 148 16 316 c 0
 16 484 152 620 320 620 c 0
 488 620 625 484 625 316 c 0
EndSplineSet
EndChar

StartChar: Oslash
Encoding: 216 216 69
Width: 641
VWidth: 0
Flags: HW
HStem: 12 116<235 405> 504 116<235 405>
VStem: 16 116<232 401> 509 116<232 401>
LayerCount: 2
Fore
SplineSet
509 316 m 0
 509 420 424 504 320 504 c 0
 216 504 132 420 132 316 c 0
 132 212 216 128 320 128 c 0
 424 128 509 212 509 316 c 0
625 316 m 0
 625 148 488 12 320 12 c 0
 152 12 16 148 16 316 c 0
 16 484 152 620 320 620 c 0
 488 620 625 484 625 316 c 0
EndSplineSet
EndChar

StartChar: ograve
Encoding: 242 242 70
Width: 641
VWidth: 0
Flags: HW
HStem: 12 116<235 405> 504 116<235 405>
VStem: 16 116<232 401> 509 116<232 401>
LayerCount: 2
Fore
SplineSet
509 316 m 0
 509 420 424 504 320 504 c 0
 216 504 132 420 132 316 c 0
 132 212 216 128 320 128 c 0
 424 128 509 212 509 316 c 0
625 316 m 0
 625 148 488 12 320 12 c 0
 152 12 16 148 16 316 c 0
 16 484 152 620 320 620 c 0
 488 620 625 484 625 316 c 0
EndSplineSet
EndChar

StartChar: oacute
Encoding: 243 243 71
Width: 641
VWidth: 0
Flags: HW
HStem: 12 116<235 405> 504 116<235 405>
VStem: 16 116<232 401> 509 116<232 401>
LayerCount: 2
Fore
SplineSet
509 316 m 0
 509 420 424 504 320 504 c 0
 216 504 132 420 132 316 c 0
 132 212 216 128 320 128 c 0
 424 128 509 212 509 316 c 0
625 316 m 0
 625 148 488 12 320 12 c 0
 152 12 16 148 16 316 c 0
 16 484 152 620 320 620 c 0
 488 620 625 484 625 316 c 0
EndSplineSet
EndChar

StartChar: ocircumflex
Encoding: 244 244 72
Width: 641
VWidth: 0
Flags: HW
HStem: 12 116<235 405> 504 116<235 405>
VStem: 16 116<232 401> 509 116<232 401>
LayerCount: 2
Fore
SplineSet
509 316 m 0
 509 420 424 504 320 504 c 0
 216 504 132 420 132 316 c 0
 132 212 216 128 320 128 c 0
 424 128 509 212 509 316 c 0
625 316 m 0
 625 148 488 12 320 12 c 0
 152 12 16 148 16 316 c 0
 16 484 152 620 320 620 c 0
 488 620 625 484 625 316 c 0
EndSplineSet
EndChar

StartChar: otilde
Encoding: 245 245 73
Width: 641
VWidth: 0
Flags: HW
HStem: 12 116<235 405> 504 116<235 405>
VStem: 16 116<232 401> 509 116<232 401>
LayerCount: 2
Fore
SplineSet
509 316 m 0
 509 420 424 504 320 504 c 0
 216 504 132 420 132 316 c 0
 132 212 216 128 320 128 c 0
 424 128 509 212 509 316 c 0
625 316 m 0
 625 148 488 12 320 12 c 0
 152 12 16 148 16 316 c 0
 16 484 152 620 320 620 c 0
 488 620 625 484 625 316 c 0
EndSplineSet
EndChar

StartChar: odieresis
Encoding: 246 246 74
Width: 641
VWidth: 0
Flags: HW
HStem: 12 116<235 405> 504 116<235 405>
VStem: 16 116<232 401> 509 116<232 401>
LayerCount: 2
Fore
SplineSet
509 316 m 0
 509 420 424 504 320 504 c 0
 216 504 132 420 132 316 c 0
 132 212 216 128 320 128 c 0
 424 128 509 212 509 316 c 0
625 316 m 0
 625 148 488 12 320 12 c 0
 152 12 16 148 16 316 c 0
 16 484 152 620 320 620 c 0
 488 620 625 484 625 316 c 0
EndSplineSet
EndChar

StartChar: oslash
Encoding: 248 248 75
Width: 641
VWidth: 0
Flags: HW
HStem: 12 116<235 405> 504 116<235 405>
VStem: 16 116<232 401> 509 116<232 401>
LayerCount: 2
Fore
SplineSet
509 316 m 0
 509 420 424 504 320 504 c 0
 216 504 132 420 132 316 c 0
 132 212 216 128 320 128 c 0
 424 128 509 212 509 316 c 0
625 316 m 0
 625 148 488 12 320 12 c 0
 152 12 16 148 16 316 c 0
 16 484 152 620 320 620 c 0
 488 620 625 484 625 316 c 0
EndSplineSet
EndChar

StartChar: ugrave
Encoding: 249 249 76
Width: 641
VWidth: 0
Flags: HW
HStem: 12 116<235 405>
VStem: 16 116<233 607> 509 116<233 607>
LayerCount: 2
Fore
SplineSet
16 563 m 2
 16 595 42 620 74 620 c 0
 106 620 132 595 132 563 c 2
 132 316 l 2
 132 212 216 128 320 128 c 0
 424 128 509 212 509 316 c 2
 509 563 l 2
 509 595 536 620 568 620 c 0
 600 620 625 595 625 563 c 2
 625 316 l 2
 625 148 488 12 320 12 c 0
 152 12 16 148 16 316 c 2
 16 563 l 2
EndSplineSet
EndChar

StartChar: uacute
Encoding: 250 250 77
Width: 641
VWidth: 0
Flags: HW
HStem: 12 116<235 405>
VStem: 16 116<233 607> 509 116<233 607>
LayerCount: 2
Fore
SplineSet
16 563 m 2
 16 595 42 620 74 620 c 0
 106 620 132 595 132 563 c 2
 132 316 l 2
 132 212 216 128 320 128 c 0
 424 128 509 212 509 316 c 2
 509 563 l 2
 509 595 536 620 568 620 c 0
 600 620 625 595 625 563 c 2
 625 316 l 2
 625 148 488 12 320 12 c 0
 152 12 16 148 16 316 c 2
 16 563 l 2
EndSplineSet
EndChar

StartChar: ucircumflex
Encoding: 251 251 78
Width: 641
VWidth: 0
Flags: HW
HStem: 12 116<235 405>
VStem: 16 116<233 607> 509 116<233 607>
LayerCount: 2
Fore
SplineSet
16 563 m 2
 16 595 42 620 74 620 c 0
 106 620 132 595 132 563 c 2
 132 316 l 2
 132 212 216 128 320 128 c 0
 424 128 509 212 509 316 c 2
 509 563 l 2
 509 595 536 620 568 620 c 0
 600 620 625 595 625 563 c 2
 625 316 l 2
 625 148 488 12 320 12 c 0
 152 12 16 148 16 316 c 2
 16 563 l 2
EndSplineSet
EndChar

StartChar: udieresis
Encoding: 252 252 79
Width: 641
VWidth: 0
Flags: HW
HStem: 12 116<235 405>
VStem: 16 116<233 607> 509 116<233 607>
LayerCount: 2
Fore
SplineSet
16 563 m 2
 16 595 42 620 74 620 c 0
 106 620 132 595 132 563 c 2
 132 316 l 2
 132 212 216 128 320 128 c 0
 424 128 509 212 509 316 c 2
 509 563 l 2
 509 595 536 620 568 620 c 0
 600 620 625 595 625 563 c 2
 625 316 l 2
 625 148 488 12 320 12 c 0
 152 12 16 148 16 316 c 2
 16 563 l 2
EndSplineSet
EndChar

StartChar: Ugrave
Encoding: 217 217 80
Width: 641
VWidth: 0
Flags: HW
HStem: 12 116<235 405>
VStem: 16 116<233 607> 509 116<233 607>
LayerCount: 2
Fore
SplineSet
16 563 m 2
 16 595 42 620 74 620 c 0
 106 620 132 595 132 563 c 2
 132 316 l 2
 132 212 216 128 320 128 c 0
 424 128 509 212 509 316 c 2
 509 563 l 2
 509 595 536 620 568 620 c 0
 600 620 625 595 625 563 c 2
 625 316 l 2
 625 148 488 12 320 12 c 0
 152 12 16 148 16 316 c 2
 16 563 l 2
EndSplineSet
EndChar

StartChar: Uacute
Encoding: 218 218 81
Width: 641
VWidth: 0
Flags: HW
HStem: 12 116<235 405>
VStem: 16 116<233 607> 509 116<233 607>
LayerCount: 2
Fore
SplineSet
16 563 m 2
 16 595 42 620 74 620 c 0
 106 620 132 595 132 563 c 2
 132 316 l 2
 132 212 216 128 320 128 c 0
 424 128 509 212 509 316 c 2
 509 563 l 2
 509 595 536 620 568 620 c 0
 600 620 625 595 625 563 c 2
 625 316 l 2
 625 148 488 12 320 12 c 0
 152 12 16 148 16 316 c 2
 16 563 l 2
EndSplineSet
EndChar

StartChar: Ucircumflex
Encoding: 219 219 82
Width: 641
VWidth: 0
Flags: HW
HStem: 12 116<235 405>
VStem: 16 116<233 607> 509 116<233 607>
LayerCount: 2
Fore
SplineSet
16 563 m 2
 16 595 42 620 74 620 c 0
 106 620 132 595 132 563 c 2
 132 316 l 2
 132 212 216 128 320 128 c 0
 424 128 509 212 509 316 c 2
 509 563 l 2
 509 595 536 620 568 620 c 0
 600 620 625 595 625 563 c 2
 625 316 l 2
 625 148 488 12 320 12 c 0
 152 12 16 148 16 316 c 2
 16 563 l 2
EndSplineSet
EndChar

StartChar: Udieresis
Encoding: 220 220 83
Width: 641
VWidth: 0
Flags: HW
HStem: 12 116<235 405>
VStem: 16 116<233 607> 509 116<233 607>
LayerCount: 2
Fore
SplineSet
16 563 m 2
 16 595 42 620 74 620 c 0
 106 620 132 595 132 563 c 2
 132 316 l 2
 132 212 216 128 320 128 c 0
 424 128 509 212 509 316 c 2
 509 563 l 2
 509 595 536 620 568 620 c 0
 600 620 625 595 625 563 c 2
 625 316 l 2
 625 148 488 12 320 12 c 0
 152 12 16 148 16 316 c 2
 16 563 l 2
EndSplineSet
EndChar

StartChar: Yacute
Encoding: 221 221 84
Width: 641
VWidth: 0
Flags: HW
HStem: -177 116<275 403> 12 116<235 406>
VStem: 16 116<233 607> 509 116<231 607>
LayerCount: 2
Fore
SplineSet
625 128 m 2
 625 -40 488 -177 320 -177 c 0
 288 -177 262 -150 262 -118 c 0
 262 -86 288 -61 320 -61 c 0
 404 -61 475 -4 499 71 c 1
 448 33 386 12 320 12 c 0
 152 12 16 148 16 316 c 2
 16 563 l 2
 16 595 42 620 74 620 c 0
 106 620 132 595 132 563 c 2
 132 316 l 2
 132 212 216 128 320 128 c 0
 424 128 509 212 509 316 c 2
 509 563 l 2
 509 595 536 620 568 620 c 0
 600 620 625 595 625 563 c 2
 625 346 l 1
 625 128 l 2
EndSplineSet
EndChar

StartChar: yacute
Encoding: 253 253 85
Width: 641
VWidth: 0
Flags: HW
HStem: -177 116<275 403> 12 116<235 406>
VStem: 16 116<233 607> 509 116<231 607>
LayerCount: 2
Fore
SplineSet
625 128 m 2
 625 -40 488 -177 320 -177 c 0
 288 -177 262 -150 262 -118 c 0
 262 -86 288 -61 320 -61 c 0
 404 -61 475 -4 499 71 c 1
 448 33 386 12 320 12 c 0
 152 12 16 148 16 316 c 2
 16 563 l 2
 16 595 42 620 74 620 c 0
 106 620 132 595 132 563 c 2
 132 316 l 2
 132 212 216 128 320 128 c 0
 424 128 509 212 509 316 c 2
 509 563 l 2
 509 595 536 620 568 620 c 0
 600 620 625 595 625 563 c 2
 625 346 l 1
 625 128 l 2
EndSplineSet
EndChar

StartChar: ydieresis
Encoding: 255 255 86
Width: 641
VWidth: 0
Flags: HW
HStem: -177 116<275 403> 12 116<235 406>
VStem: 16 116<233 607> 509 116<231 607>
LayerCount: 2
Fore
SplineSet
625 128 m 2
 625 -40 488 -177 320 -177 c 0
 288 -177 262 -150 262 -118 c 0
 262 -86 288 -61 320 -61 c 0
 404 -61 475 -4 499 71 c 1
 448 33 386 12 320 12 c 0
 152 12 16 148 16 316 c 2
 16 563 l 2
 16 595 42 620 74 620 c 0
 106 620 132 595 132 563 c 2
 132 316 l 2
 132 212 216 128 320 128 c 0
 424 128 509 212 509 316 c 2
 509 563 l 2
 509 595 536 620 568 620 c 0
 600 620 625 595 625 563 c 2
 625 346 l 1
 625 128 l 2
EndSplineSet
EndChar

StartChar: egrave
Encoding: 232 232 87
Width: 641
VWidth: 0
Flags: HW
HStem: 12 116<237 365> 259 116<142 499> 504 116<235 405>
VStem: 16 363<71 316>
LayerCount: 2
Fore
SplineSet
320 620 m 0
 488 620 625 484 625 316 c 0
 625 284 600 259 568 259 c 2
 142 259 l 1
 166 184 236 128 320 128 c 0
 352 128 379 103 379 71 c 0
 379 39 352 12 320 12 c 0
 152 12 16 148 16 316 c 0
 16 484 152 620 320 620 c 0
320 504 m 0
 236 504 166 450 142 375 c 1
 499 375 l 1
 475 450 404 504 320 504 c 0
EndSplineSet
EndChar

StartChar: eacute
Encoding: 233 233 88
Width: 641
VWidth: 0
Flags: HW
HStem: 12 116<237 365> 259 116<142 499> 504 116<235 405>
VStem: 16 363<71 316>
LayerCount: 2
Fore
SplineSet
320 620 m 0
 488 620 625 484 625 316 c 0
 625 284 600 259 568 259 c 2
 142 259 l 1
 166 184 236 128 320 128 c 0
 352 128 379 103 379 71 c 0
 379 39 352 12 320 12 c 0
 152 12 16 148 16 316 c 0
 16 484 152 620 320 620 c 0
320 504 m 0
 236 504 166 450 142 375 c 1
 499 375 l 1
 475 450 404 504 320 504 c 0
EndSplineSet
EndChar

StartChar: ecircumflex
Encoding: 234 234 89
Width: 641
VWidth: 0
Flags: HW
HStem: 12 116<237 365> 259 116<142 499> 504 116<235 405>
VStem: 16 363<71 316>
LayerCount: 2
Fore
SplineSet
320 620 m 0
 488 620 625 484 625 316 c 0
 625 284 600 259 568 259 c 2
 142 259 l 1
 166 184 236 128 320 128 c 0
 352 128 379 103 379 71 c 0
 379 39 352 12 320 12 c 0
 152 12 16 148 16 316 c 0
 16 484 152 620 320 620 c 0
320 504 m 0
 236 504 166 450 142 375 c 1
 499 375 l 1
 475 450 404 504 320 504 c 0
EndSplineSet
EndChar

StartChar: edieresis
Encoding: 235 235 90
Width: 641
VWidth: 0
Flags: HW
HStem: 12 116<237 365> 259 116<142 499> 504 116<235 405>
VStem: 16 363<71 316>
LayerCount: 2
Fore
SplineSet
320 620 m 0
 488 620 625 484 625 316 c 0
 625 284 600 259 568 259 c 2
 142 259 l 1
 166 184 236 128 320 128 c 0
 352 128 379 103 379 71 c 0
 379 39 352 12 320 12 c 0
 152 12 16 148 16 316 c 0
 16 484 152 620 320 620 c 0
320 504 m 0
 236 504 166 450 142 375 c 1
 499 375 l 1
 475 450 404 504 320 504 c 0
EndSplineSet
EndChar

StartChar: Egrave
Encoding: 200 200 91
Width: 641
VWidth: 0
Flags: HW
HStem: 12 116<237 365> 259 116<142 499> 504 116<235 405>
VStem: 16 363<71 316>
LayerCount: 2
Fore
SplineSet
320 620 m 0
 488 620 625 484 625 316 c 0
 625 284 600 259 568 259 c 2
 142 259 l 1
 166 184 236 128 320 128 c 0
 352 128 379 103 379 71 c 0
 379 39 352 12 320 12 c 0
 152 12 16 148 16 316 c 0
 16 484 152 620 320 620 c 0
320 504 m 0
 236 504 166 450 142 375 c 1
 499 375 l 1
 475 450 404 504 320 504 c 0
EndSplineSet
EndChar

StartChar: Eacute
Encoding: 201 201 92
Width: 641
VWidth: 0
Flags: HW
HStem: 12 116<237 365> 259 116<142 499> 504 116<235 405>
VStem: 16 363<71 316>
LayerCount: 2
Fore
SplineSet
320 620 m 0
 488 620 625 484 625 316 c 0
 625 284 600 259 568 259 c 2
 142 259 l 1
 166 184 236 128 320 128 c 0
 352 128 379 103 379 71 c 0
 379 39 352 12 320 12 c 0
 152 12 16 148 16 316 c 0
 16 484 152 620 320 620 c 0
320 504 m 0
 236 504 166 450 142 375 c 1
 499 375 l 1
 475 450 404 504 320 504 c 0
EndSplineSet
EndChar

StartChar: Ecircumflex
Encoding: 202 202 93
Width: 641
VWidth: 0
Flags: HW
HStem: 12 116<237 365> 259 116<142 499> 504 116<235 405>
VStem: 16 363<71 316>
LayerCount: 2
Fore
SplineSet
320 620 m 0
 488 620 625 484 625 316 c 0
 625 284 600 259 568 259 c 2
 142 259 l 1
 166 184 236 128 320 128 c 0
 352 128 379 103 379 71 c 0
 379 39 352 12 320 12 c 0
 152 12 16 148 16 316 c 0
 16 484 152 620 320 620 c 0
320 504 m 0
 236 504 166 450 142 375 c 1
 499 375 l 1
 475 450 404 504 320 504 c 0
EndSplineSet
EndChar

StartChar: Edieresis
Encoding: 203 203 94
Width: 641
VWidth: 0
Flags: HW
HStem: 12 116<237 365> 259 116<142 499> 504 116<235 405>
VStem: 16 363<71 316>
LayerCount: 2
Fore
SplineSet
320 620 m 0
 488 620 625 484 625 316 c 0
 625 284 600 259 568 259 c 2
 142 259 l 1
 166 184 236 128 320 128 c 0
 352 128 379 103 379 71 c 0
 379 39 352 12 320 12 c 0
 152 12 16 148 16 316 c 0
 16 484 152 620 320 620 c 0
320 504 m 0
 236 504 166 450 142 375 c 1
 499 375 l 1
 475 450 404 504 320 504 c 0
EndSplineSet
EndChar

StartChar: Igrave
Encoding: 204 204 95
Width: 148
VWidth: 0
Flags: HW
HStem: 12 23G<58 90> 693 117<29 119>
VStem: 16 116<26 607 707 797>
LayerCount: 2
Fore
SplineSet
132 752 m 0
 132 720 106 693 74 693 c 0
 42 693 16 720 16 752 c 0
 16 784 42 811 74 811 c 0
 106 811 132 784 132 752 c 0
132 71 m 2
 132 39 106 12 74 12 c 0
 42 12 16 39 16 71 c 2
 16 563 l 2
 16 595 42 620 74 620 c 0
 106 620 132 595 132 563 c 2
 132 71 l 2
EndSplineSet
EndChar

StartChar: Iacute
Encoding: 205 205 96
Width: 148
VWidth: 0
Flags: HW
HStem: 12 23G<58 90> 693 117<29 119>
VStem: 16 116<26 607 707 797>
LayerCount: 2
Fore
SplineSet
132 752 m 0
 132 720 106 693 74 693 c 0
 42 693 16 720 16 752 c 0
 16 784 42 811 74 811 c 0
 106 811 132 784 132 752 c 0
132 71 m 2
 132 39 106 12 74 12 c 0
 42 12 16 39 16 71 c 2
 16 563 l 2
 16 595 42 620 74 620 c 0
 106 620 132 595 132 563 c 2
 132 71 l 2
EndSplineSet
EndChar

StartChar: Icircumflex
Encoding: 206 206 97
Width: 148
VWidth: 0
Flags: HW
HStem: 12 23G<58 90> 693 117<29 119>
VStem: 16 116<26 607 707 797>
LayerCount: 2
Fore
SplineSet
132 752 m 0
 132 720 106 693 74 693 c 0
 42 693 16 720 16 752 c 0
 16 784 42 811 74 811 c 0
 106 811 132 784 132 752 c 0
132 71 m 2
 132 39 106 12 74 12 c 0
 42 12 16 39 16 71 c 2
 16 563 l 2
 16 595 42 620 74 620 c 0
 106 620 132 595 132 563 c 2
 132 71 l 2
EndSplineSet
EndChar

StartChar: Idieresis
Encoding: 207 207 98
Width: 148
VWidth: 0
Flags: HW
HStem: 12 23G<58 90> 693 117<29 119>
VStem: 16 116<26 607 707 797>
LayerCount: 2
Fore
SplineSet
132 752 m 0
 132 720 106 693 74 693 c 0
 42 693 16 720 16 752 c 0
 16 784 42 811 74 811 c 0
 106 811 132 784 132 752 c 0
132 71 m 2
 132 39 106 12 74 12 c 0
 42 12 16 39 16 71 c 2
 16 563 l 2
 16 595 42 620 74 620 c 0
 106 620 132 595 132 563 c 2
 132 71 l 2
EndSplineSet
EndChar

StartChar: igrave
Encoding: 236 236 99
Width: 148
VWidth: 0
Flags: HW
HStem: 12 23G<58 90> 693 117<29 119>
VStem: 16 116<26 607 707 797>
LayerCount: 2
Fore
SplineSet
132 752 m 0
 132 720 106 693 74 693 c 0
 42 693 16 720 16 752 c 0
 16 784 42 811 74 811 c 0
 106 811 132 784 132 752 c 0
132 71 m 2
 132 39 106 12 74 12 c 0
 42 12 16 39 16 71 c 2
 16 563 l 2
 16 595 42 620 74 620 c 0
 106 620 132 595 132 563 c 2
 132 71 l 2
EndSplineSet
EndChar

StartChar: iacute
Encoding: 237 237 100
Width: 148
VWidth: 0
Flags: HW
HStem: 12 23G<58 90> 693 117<29 119>
VStem: 16 116<26 607 707 797>
LayerCount: 2
Fore
SplineSet
132 752 m 0
 132 720 106 693 74 693 c 0
 42 693 16 720 16 752 c 0
 16 784 42 811 74 811 c 0
 106 811 132 784 132 752 c 0
132 71 m 2
 132 39 106 12 74 12 c 0
 42 12 16 39 16 71 c 2
 16 563 l 2
 16 595 42 620 74 620 c 0
 106 620 132 595 132 563 c 2
 132 71 l 2
EndSplineSet
EndChar

StartChar: icircumflex
Encoding: 238 238 101
Width: 148
VWidth: 0
Flags: HW
HStem: 12 23G<58 90> 693 117<29 119>
VStem: 16 116<26 607 707 797>
LayerCount: 2
Fore
SplineSet
132 752 m 0
 132 720 106 693 74 693 c 0
 42 693 16 720 16 752 c 0
 16 784 42 811 74 811 c 0
 106 811 132 784 132 752 c 0
132 71 m 2
 132 39 106 12 74 12 c 0
 42 12 16 39 16 71 c 2
 16 563 l 2
 16 595 42 620 74 620 c 0
 106 620 132 595 132 563 c 2
 132 71 l 2
EndSplineSet
EndChar

StartChar: idieresis
Encoding: 239 239 102
Width: 148
VWidth: 0
Flags: HW
HStem: 12 23G<58 90> 693 117<29 119>
VStem: 16 116<26 607 707 797>
LayerCount: 2
Fore
SplineSet
132 752 m 0
 132 720 106 693 74 693 c 0
 42 693 16 720 16 752 c 0
 16 784 42 811 74 811 c 0
 106 811 132 784 132 752 c 0
132 71 m 2
 132 39 106 12 74 12 c 0
 42 12 16 39 16 71 c 2
 16 563 l 2
 16 595 42 620 74 620 c 0
 106 620 132 595 132 563 c 2
 132 71 l 2
EndSplineSet
EndChar

StartChar: eth
Encoding: 240 240 103
Width: 641
VWidth: 0
Flags: HW
HStem: 12 116<235 405> 504 116<235 405>
VStem: 16 116<232 401> 509 116<232 401>
LayerCount: 2
Fore
SplineSet
509 316 m 0
 509 420 424 504 320 504 c 0
 216 504 132 420 132 316 c 0
 132 212 216 128 320 128 c 0
 424 128 509 212 509 316 c 0
625 316 m 0
 625 148 488 12 320 12 c 0
 152 12 16 148 16 316 c 0
 16 484 152 620 320 620 c 0
 488 620 625 484 625 316 c 0
EndSplineSet
EndChar

StartChar: ntilde
Encoding: 241 241 104
Width: 641
VWidth: 0
Flags: HW
HStem: 12 23G<58 90 552 584> 504 116<233 405>
VStem: 16 116<26 402 556 607> 509 116<26 400>
LayerCount: 2
Fore
SplineSet
16 563 m 2
 16 595 42 620 74 620 c 0
 106 620 132 595 132 563 c 2
 132 556 l 1
 184 597 249 620 320 620 c 0
 488 620 625 484 625 316 c 2
 625 71 l 2
 625 39 600 12 568 12 c 0
 536 12 509 39 509 71 c 2
 509 316 l 2
 509 420 424 504 320 504 c 0
 216 504 132 420 132 316 c 2
 132 71 l 2
 132 39 106 12 74 12 c 0
 42 12 16 39 16 71 c 2
 16 410 l 1
 16 563 l 2
EndSplineSet
EndChar

StartChar: multiply
Encoding: 215 215 105
Width: 641
VWidth: 0
Flags: HW
HStem: 12 23G<57 83 559 584>
LayerCount: 2
Fore
SplineSet
568 620 m 0
 569 620 l 0
 599 620 625 595 625 565 c 0
 625 547 621 534 609 522 c 0
 550 463 462 375 403 316 c 1
 458 261 554 167 609 112 c 0
 621 100 625 87 625 69 c 0
 625 39 599 12 569 12 c 0
 568 12 l 0
 567 12 l 0
 553 12 536 19 526 29 c 0
 474 81 372 181 320 233 c 1
 260 173 174 89 114 29 c 0
 104 19 90 12 76 12 c 0
 74 12 l 0
 72 12 l 0
 42 12 16 39 16 69 c 0
 16 87 22 100 34 112 c 2
 238 316 l 1
 34 522 l 2
 22 534 16 547 16 565 c 0
 16 595 42 620 72 620 c 0
 74 620 l 0
 76 620 l 0
 90 620 104 616 114 605 c 2
 320 399 l 1
 380 459 466 545 526 605 c 0
 536 616 553 620 567 620 c 0
 568 620 l 0
EndSplineSet
EndChar

StartChar: Ntilde
Encoding: 209 209 106
Width: 641
VWidth: 0
Flags: HW
HStem: 12 23G<58 90 552 584> 504 116<233 405>
VStem: 16 116<26 402 556 607> 509 116<26 400>
LayerCount: 2
Fore
SplineSet
16 563 m 2
 16 595 42 620 74 620 c 0
 106 620 132 595 132 563 c 2
 132 556 l 1
 184 597 249 620 320 620 c 0
 488 620 625 484 625 316 c 2
 625 71 l 2
 625 39 600 12 568 12 c 0
 536 12 509 39 509 71 c 2
 509 316 l 2
 509 420 424 504 320 504 c 0
 216 504 132 420 132 316 c 2
 132 71 l 2
 132 39 106 12 74 12 c 0
 42 12 16 39 16 71 c 2
 16 410 l 1
 16 563 l 2
EndSplineSet
EndChar

StartChar: Ccedilla
Encoding: 199 199 107
Width: 568
VWidth: 0
Flags: HW
HStem: 12 116<232 408> 504 116<230 410>
VStem: 16 116<229 406>
LayerCount: 2
Fore
SplineSet
104 102 m 0
 44 162 16 239 16 316 c 0
 16 393 44 472 104 532 c 0
 164 592 243 620 320 620 c 0
 397 620 477 592 537 532 c 0
 548 521 552 505 552 491 c 0
 552 477 548 461 537 450 c 0
 526 439 509 432 495 432 c 0
 481 432 465 439 454 450 c 0
 416 488 369 504 320 504 c 0
 271 504 225 488 187 450 c 0
 149 412 132 365 132 316 c 0
 132 267 149 222 187 184 c 0
 225 146 271 128 320 128 c 0
 369 128 416 146 454 184 c 0
 465 195 481 200 495 200 c 0
 509 200 526 195 537 184 c 0
 548 173 552 157 552 143 c 0
 552 129 548 113 537 102 c 0
 477 42 397 12 320 12 c 0
 243 12 164 42 104 102 c 0
EndSplineSet
EndChar

StartChar: Eth
Encoding: 208 208 108
Width: 641
VWidth: 0
Flags: HW
HStem: 12 116<235 405> 504 116<235 408>
VStem: 16 116<232 401> 509 116<233 402 556 797>
LayerCount: 2
Fore
SplineSet
509 556 m 1
 509 752 l 2
 509 784 536 811 568 811 c 0
 600 811 625 784 625 752 c 2
 625 316 l 2
 625 148 488 12 320 12 c 0
 152 12 16 148 16 316 c 0
 16 484 152 620 320 620 c 0
 391 620 457 597 509 556 c 1
320 504 m 0
 216 504 132 420 132 316 c 0
 132 212 216 128 320 128 c 0
 424 128 509 212 509 316 c 0
 509 420 424 504 320 504 c 0
EndSplineSet
EndChar

StartChar: germandbls
Encoding: 223 223 109
Width: 641
VWidth: 0
Flags: HW
HStem: 12 116<235 405> 504 116<233 405>
VStem: 16 116<233 402 556 797> 509 116<232 401>
LayerCount: 2
Fore
SplineSet
74 811 m 0
 106 811 132 784 132 752 c 2
 132 556 l 1
 184 597 249 620 320 620 c 0
 488 620 625 484 625 316 c 0
 625 148 488 12 320 12 c 0
 152 12 16 148 16 316 c 2
 16 752 l 2
 16 784 42 811 74 811 c 0
320 504 m 0
 216 504 132 420 132 316 c 0
 132 212 216 128 320 128 c 0
 424 128 509 212 509 316 c 0
 509 420 424 504 320 504 c 0
EndSplineSet
EndChar
